# xmcd CD database file
#
# Track frame offsets:
#	150
#	34533
#	66985
#	102082
#	121461
#	156205
#	175742
#	216893
#	234156
#	289671
#	335740
#
# Disc length: 4762 seconds
#
# Revision: 0
# Processed by: cddbd v1.5.2PL0 Copyright (c) Steve Scherf et al.
# Submitted via: CDex 1.70beta2
#
DISCID=9812980b
DTITLE=WYNTON MARSALIS and ERIC CLAPTON - Play The Blues - Live From Jazz At Lincoln Center
DYEAR=2011
DGENRE=Jazz
TTITLE0=Ice Cream
TTITLE1=Forty-Four
TTITLE2=Joe Turner's Blues
TTITLE3=The Last Time
TTITLE4=Careless Love
TTITLE5=Kidman Blues
TTITLE6=Layla
TTITLE7=Joliet Bound
TTITLE8=Just A Closer Walk With Thee(Feat. Taj Mahal)
TTITLE9=Corrine, Corrina(Feat Taj Mahal)
TTITLE10=Stagger Lee(Feat. Taj Mahal)(Bonus)
EXTD=YEAR: 2011
EXTT0=
EXTT1=
EXTT2=
EXTT3=
EXTT4=
EXTT5=
EXTT6=
EXTT7=
EXTT8=
EXTT9=
EXTT10=
PLAYORDER=
